<svg xmlns="http://www.w3.org/2000/svg" width="89.28" height="72.576" viewBox="0 0 89.28 72.576">
  <g id="quotes2" transform="translate(-461.508 -229.413)">
    <g id="Group_9" data-name="Group 9" transform="translate(58.832 129.631)">
      <path id="Path_21" data-name="Path 21" d="M424.564,172.358a18.864,18.864,0,0,1-10.368-2.592,21.8,21.8,0,0,1-6.624-6.624,31.665,31.665,0,0,1-3.888-10.224,49.085,49.085,0,0,1-1.008-8.784,47.384,47.384,0,0,1,7.2-25.632q7.2-11.52,22.464-18.72l2.592,5.184a38.915,38.915,0,0,0-15.408,11.808q-6.48,8.064-6.48,16.416a19.147,19.147,0,0,0,.864,6.048,16.408,16.408,0,0,1,10.656-3.744,18.793,18.793,0,0,1,12.96,4.9q5.472,4.9,5.472,13.536a17.448,17.448,0,0,1-5.472,13.248A18.21,18.21,0,0,1,424.564,172.358Zm48.96,0a18.864,18.864,0,0,1-10.368-2.592,21.8,21.8,0,0,1-6.624-6.624,31.664,31.664,0,0,1-3.888-10.224,49.083,49.083,0,0,1-1.008-8.784,47.384,47.384,0,0,1,7.2-25.632q7.2-11.52,22.464-18.72l2.592,5.184a38.915,38.915,0,0,0-15.408,11.808Q462,124.838,462,133.19a19.146,19.146,0,0,0,.864,6.048,16.408,16.408,0,0,1,10.656-3.744,18.794,18.794,0,0,1,12.96,4.9q5.472,4.9,5.472,13.536a17.448,17.448,0,0,1-5.472,13.248A18.21,18.21,0,0,1,473.524,172.358Z" fill="#0a71aa"/>
    </g>
  </g>
</svg>
