<?xml version="1.0" encoding="UTF-8" standalone="no"?>
<!DOCTYPE svg PUBLIC "-//W3C//DTD SVG 1.1//EN" "http://www.w3.org/Graphics/SVG/1.1/DTD/svg11.dtd">
<svg width="100%" height="100%" viewBox="0 0 1413 1153" version="1.1" xmlns="http://www.w3.org/2000/svg" xmlns:xlink="http://www.w3.org/1999/xlink" xml:space="preserve" xmlns:serif="http://www.serif.com/" style="fill-rule:evenodd;clip-rule:evenodd;stroke-linecap:round;stroke-linejoin:round;stroke-miterlimit:2;">
    <g id="Artboard1" transform="matrix(1,0,0,1,-800.474,56.5289)">
        <rect x="800.474" y="-56.529" width="1412.63" height="1152.43" style="fill:none;"/>
        <clipPath id="_clip1">
            <rect x="800.474" y="-56.529" width="1412.63" height="1152.43"/>
        </clipPath>
        <g clip-path="url(#_clip1)">
            <g id="scale" transform="matrix(1,0,0,1,-38.1114,-256.051)">
                <g opacity="0.12">
                    <path id="Path_18" d="M42.719,741.2C124.791,754.631 206.866,768.06 277.001,752.018C347.136,735.976 405.333,690.464 462.201,669.445C519.069,648.426 574.601,651.899 604.62,662.945C634.639,673.991 639.156,692.607 647.9,722.509C656.644,752.411 669.621,793.593 687.956,843.523C706.291,893.453 729.987,952.123 746.913,988.228C763.839,1024.33 773.992,1037.88 768.632,1042.95C763.272,1048.03 742.398,1044.64 708.832,1044.37C675.263,1044.08 629.001,1046.91 595.151,1053.11C561.301,1059.31 539.862,1068.91 534.784,1083.01C529.706,1097.11 540.984,1115.73 575.969,1127.3C610.954,1138.86 669.621,1143.37 708.269,1136.33C746.917,1129.28 765.531,1110.65 775.969,1097.96C786.407,1085.27 788.663,1078.5 762.711,1072.57C736.759,1066.64 682.599,1061.57 635.491,1059.88C588.383,1058.19 548.326,1059.88 529.145,1059.6C509.964,1059.32 511.655,1057.06 528.58,998.38C545.505,939.698 577.659,824.62 599.1,760.587C620.541,696.554 631.256,683.577 653.542,668.627C675.828,653.677 709.677,636.751 742.399,627.161C775.121,617.571 806.714,615.311 833.231,620.672C859.748,626.033 881.186,639.007 897.265,663.549C913.344,688.091 924.065,724.198 929.423,778.358C934.781,832.518 934.782,904.732 927.731,975.814C920.68,1046.9 906.573,1116.86 883.159,1161.99C859.745,1207.13 827.025,1227.44 784.148,1243.51C741.271,1259.59 688.238,1271.44 688.521,1289.21C688.804,1306.98 742.4,1330.68 826.74,1341.4C911.08,1352.12 1026.18,1349.87 1089.37,1339.43C1152.56,1328.99 1163.83,1310.37 1153.11,1297.68C1142.39,1284.98 1109.67,1278.21 1073.28,1263.83C1036.9,1249.44 996.836,1227.44 967.223,1187.66C937.61,1147.88 918.418,1090.35 907.699,993.025C896.98,895.702 894.722,758.611 889.363,665.805C884.004,572.999 875.54,524.479 882.593,504.169C889.646,483.859 912.212,491.757 920.676,515.452C929.14,539.147 923.496,578.639 925.754,591.898C928.012,605.157 938.165,592.179 963.832,578.358C989.499,564.537 1030.69,549.867 1073,545.635C1115.32,541.403 1158.76,547.609 1179.35,559.176C1199.95,570.743 1197.68,587.665 1171.73,639.288C1145.78,690.911 1096.13,777.228 1071.03,832.799C1045.93,888.37 1045.37,913.193 1048.75,922.784C1052.13,932.375 1059.47,926.733 1084.29,923.349C1109.11,919.965 1151.42,918.835 1196.28,920.529C1241.13,922.223 1288.52,926.729 1308.83,932.94C1329.14,939.151 1322.37,947.04 1309.11,961.429C1295.86,975.818 1276.11,996.688 1243.95,1006.84C1211.78,1017 1167.23,1016.44 1134.79,1007.41C1102.35,998.38 1082.03,980.895 1080.91,973.558C1079.78,966.221 1097.83,969.048 1135.63,967.921C1173.44,966.794 1230.97,961.711 1262.85,957.201C1294.73,952.691 1300.93,948.735 1303.19,936.324C1305.46,923.913 1303.76,903.037 1292.47,870.598C1281.19,838.159 1260.31,794.153 1243.66,755.226C1227.02,716.299 1214.62,682.448 1195.9,648.365C1177.19,614.282 1152.18,579.965 1181.71,544.824C1211.25,509.683 1295.36,473.718 1428.75,464.87C1562.13,456.022 1744.84,474.292 1884.48,444.93C2024.12,415.568 2120.68,338.574 2217.25,261.579" style="fill:none;stroke:white;stroke-width:7.2px;"/>
                </g>
            </g>
        </g>
    </g>
</svg>
