<?xml version="1.0" encoding="UTF-8" standalone="no"?>
<!DOCTYPE svg PUBLIC "-//W3C//DTD SVG 1.1//EN" "http://www.w3.org/Graphics/SVG/1.1/DTD/svg11.dtd">
<svg width="100%" height="100%" viewBox="0 0 1374 392" version="1.1" xmlns="http://www.w3.org/2000/svg" xmlns:xlink="http://www.w3.org/1999/xlink" xml:space="preserve" xmlns:serif="http://www.serif.com/" style="fill-rule:evenodd;clip-rule:evenodd;stroke-linejoin:round;stroke-miterlimit:2;">
    <g transform="matrix(1,0,0,1,21.9192,154.225)">
        <g id="Your_Success_is_Our_Legacy-2">
            <g>
                <path d="M70.87,-56.43C78.66,-71.06 108.3,-119.7 110.77,-122.74C113.62,-126.16 119.32,-127.3 121.6,-127.3L125.02,-127.3C126.35,-127.3 126.54,-127.87 126.54,-129.01L126.54,-133.57C126.54,-134.71 126.35,-135.09 125.02,-135.09C123.31,-135.09 119.13,-134.52 106.02,-134.52C91.96,-134.52 84.17,-135.09 82.27,-135.09C81.13,-135.09 80.94,-134.71 80.94,-133.95L80.94,-129.01C80.94,-127.87 81.13,-127.3 82.27,-127.3L87.4,-127.3C91.39,-127.3 94.62,-124.07 94.62,-120.84C94.62,-114.95 71.82,-74.86 66.12,-64.41C60.99,-75.43 38.38,-118.94 38.38,-122.36C38.38,-125.4 40.28,-127.3 42.94,-127.3L47.31,-127.3C48.45,-127.3 48.64,-128.06 48.64,-129.01L48.64,-133.76C48.64,-134.71 48.45,-135.09 47.31,-135.09C45.41,-135.09 38.57,-134.52 19,-134.52C2.09,-134.52 -6.84,-135.09 -8.55,-135.09C-9.69,-135.09 -9.88,-134.71 -9.88,-133.95L-9.88,-128.63C-9.88,-127.87 -9.69,-127.3 -8.55,-127.3L-5.7,-127.3C-2.66,-127.3 1.9,-125.78 4.18,-122.93C8.93,-116.47 39.33,-60.99 42.37,-55.1L42.37,-46.93C42.37,-29.26 41.99,-14.25 41.8,-11.59C41.61,-9.12 40.09,-7.22 35.15,-7.22L28.5,-7.22C27.36,-7.22 27.17,-6.65 27.17,-5.89L27.17,-1.33C27.17,0 27.55,0.57 28.31,0.57C30.4,0.57 36.29,0 56.05,0C73.91,0 81.32,0.57 83.6,0.57C84.93,0.57 84.93,0 84.93,-1.14L84.93,-5.89C84.93,-6.65 84.93,-7.22 83.6,-7.22L78.09,-7.22C75.05,-7.22 72.2,-7.79 71.63,-13.87C71.44,-15.58 70.87,-27.93 70.87,-35.34L70.87,-56.43Z" style="fill:white;fill-rule:nonzero;"/>
                <path d="M150.1,2.66C163.02,2.66 174.04,-1.14 183.16,-10.64C190.57,-18.62 195.32,-29.26 195.32,-40.28C195.32,-51.87 191.52,-62.13 182.21,-70.49C173.66,-78.47 164.73,-82.46 151.62,-82.46C142.69,-82.46 133,-80.37 123.31,-72.77C111.72,-63.84 106.97,-49.78 106.97,-41.23C106.97,-29.26 109.82,-19.19 117.04,-11.21C126.73,-0.19 136.23,2.66 150.1,2.66ZM151.24,-5.32C144.21,-5.32 141.17,-8.36 138.7,-13.49C134.9,-21.66 133.95,-28.88 133.95,-39.9C133.95,-55.29 136.42,-63.46 140.22,-69.35C142.69,-73.15 145.73,-74.48 150.48,-74.48C158.84,-74.48 166.44,-63.65 166.44,-41.61C166.44,-20.71 161.69,-5.32 151.24,-5.32Z" style="fill:white;fill-rule:nonzero;"/>
                <path d="M302.29,-4.75C303.05,-4.94 303.43,-5.32 303.24,-6.27L302.67,-9.88C302.48,-10.64 301.91,-11.02 300.39,-10.64C298.11,-10.07 295.26,-10.07 294.12,-10.07C293.36,-10.07 291.27,-10.83 290.7,-16.72C290.32,-20.14 290.32,-29.45 290.32,-38.57L290.32,-52.63C290.32,-71.82 291.27,-76.76 291.46,-78.47C291.65,-79.42 290.89,-80.37 289.75,-80.37C289.18,-80.37 288.42,-80.18 287.47,-80.18C286.52,-79.99 285.57,-79.8 284.24,-79.8L255.93,-79.8C254.03,-79.8 253.65,-79.61 253.65,-78.09L253.65,-74.48C253.65,-73.53 254.6,-73.34 256.88,-73.15C261.63,-72.77 265.05,-71.25 265.05,-66.5L265.24,-21.85C265.24,-19.95 263.91,-16.91 262.2,-15.01C259.35,-11.4 255.17,-8.93 251.94,-8.93C248.52,-8.93 245.48,-8.55 242.63,-12.92C237.88,-20.33 239.02,-34.58 239.02,-42.18L239.02,-52.44C239.02,-67.45 239.59,-76.38 239.78,-78.09C239.97,-79.42 239.02,-80.37 237.69,-80.37C237.12,-80.37 236.36,-80.18 235.6,-80.18C234.84,-79.99 234.08,-79.8 232.94,-79.8L205.2,-79.8C203.49,-79.8 203.11,-79.42 203.11,-78.28L203.11,-74.48C203.11,-73.53 204.06,-73.72 207.29,-73.15C209.57,-72.77 213.56,-71.06 213.75,-66.5C213.94,-62.32 213.94,-54.72 213.94,-47.5L213.75,-39.14C213.75,-22.8 212.99,-16.72 220.97,-6.08C227.62,2.66 233.32,2.66 240.92,2.66C251.18,2.66 262.2,-3.23 266,-9.88L267.14,-9.88L268.28,0.38C268.47,1.71 269.61,2.66 271.51,2.66C273.22,2.66 274.55,2.28 275.69,1.9L302.29,-4.75Z" style="fill:white;fill-rule:nonzero;"/>
                <path d="M345.04,-50.16C345.04,-52.63 345.8,-56.24 348.27,-61.37C349.41,-63.84 351.31,-64.79 353.21,-64.79C354.73,-64.79 356.44,-64.41 357.96,-63.46C359.67,-62.32 362.14,-61.75 364.8,-61.75C371.07,-61.75 376.96,-67.45 376.96,-72.58C376.96,-79.23 372.59,-83.6 366.89,-83.6C358.53,-83.6 350.17,-77.9 344.28,-65.36L342.95,-65.36L341.24,-80.18C341.05,-81.32 340.29,-82.46 338.96,-82.46C337.82,-82.46 337.06,-82.08 335.92,-81.7L309.32,-70.11C308.18,-69.73 307.8,-69.35 307.8,-68.59L307.8,-66.88C307.8,-66.12 308.18,-65.74 309.32,-65.17L312.55,-63.27C318.25,-60.04 320.15,-56.62 320.15,-48.45L320.15,-32.68C320.15,-23.18 320.15,-16.53 319.77,-11.21C319.39,-7.79 317.68,-6.65 314.83,-6.65L309.32,-6.65C307.61,-6.65 307.23,-6.27 307.23,-4.94L307.23,-1.33C307.23,0.19 307.61,0.57 308.37,0.57C309.51,0.57 317.49,0 332.12,0C349.22,0 357.96,0.57 359.1,0.57C359.86,0.57 360.05,0 360.05,-1.14L360.05,-4.94C360.05,-6.08 359.86,-6.65 358.72,-6.65L350.93,-6.65C346.94,-6.65 345.04,-8.55 345.04,-14.44L345.04,-50.16Z" style="fill:white;fill-rule:nonzero;"/>
                <path d="M427.5,-42.37C426.74,-42.37 426.17,-42.37 425.98,-41.04L422.94,-4.94C422.75,-2.85 423.51,-1.9 425.6,-1.9C426.93,-1.9 427.88,-2.09 429.02,-4.18C430.16,-6.08 430.92,-7.41 432.06,-7.41C433.01,-7.41 434.15,-6.84 436.43,-5.32C444.41,0 453.34,2.85 470.44,2.85C495.52,2.85 512.05,-15.96 512.05,-39.14C512.05,-52.44 509.01,-60.8 501.6,-67.45C493.81,-74.48 486.4,-79.23 477.28,-81.89C467.97,-84.55 457.14,-89.11 452.2,-94.24C447.45,-98.99 447.26,-104.69 447.26,-111.72C447.26,-116.66 453.15,-129.01 467.4,-129.01C475.95,-129.01 481.65,-126.35 486.4,-121.03C492.86,-114.19 496.09,-106.78 498.18,-101.27C498.75,-99.94 499.7,-99.56 500.65,-99.94L504.83,-101.27C505.4,-101.46 505.78,-101.65 505.78,-102.41L502.74,-134.9C502.55,-136.04 502.17,-138.13 500.84,-138.13C499.7,-138.13 498.75,-137.75 497.99,-136.99L495.52,-134.52C494.38,-133.19 493.05,-132.81 491.15,-133.57C487.16,-135.09 479.75,-137.37 465.88,-137.37C454.29,-137.37 447.07,-134.71 438.52,-128.25C427.12,-119.7 424.27,-111.91 424.27,-100.32C424.27,-89.3 427.12,-79.23 433.77,-73.34C443.46,-64.98 455.62,-58.9 461.32,-56.81C486.02,-47.5 489.06,-42.94 489.06,-27.17C489.06,-12.16 474.43,-6.08 465.31,-6.08C456.19,-6.08 446.88,-10.26 441.37,-19C436.81,-26.41 434.15,-34.58 433.77,-40.47C433.77,-41.8 433.2,-41.99 432.44,-41.99L427.5,-42.37Z" style="fill:white;fill-rule:nonzero;"/>
                <path d="M625.67,-4.75C626.43,-4.94 626.81,-5.32 626.62,-6.27L626.05,-9.88C625.86,-10.64 625.29,-11.02 623.77,-10.64C621.49,-10.07 618.64,-10.07 617.5,-10.07C616.74,-10.07 614.65,-10.83 614.08,-16.72C613.7,-20.14 613.7,-29.45 613.7,-38.57L613.7,-52.63C613.7,-71.82 614.65,-76.76 614.84,-78.47C615.03,-79.42 614.27,-80.37 613.13,-80.37C612.56,-80.37 611.8,-80.18 610.85,-80.18C609.9,-79.99 608.95,-79.8 607.62,-79.8L579.31,-79.8C577.41,-79.8 577.03,-79.61 577.03,-78.09L577.03,-74.48C577.03,-73.53 577.98,-73.34 580.26,-73.15C585.01,-72.77 588.43,-71.25 588.43,-66.5L588.62,-21.85C588.62,-19.95 587.29,-16.91 585.58,-15.01C582.73,-11.4 578.55,-8.93 575.32,-8.93C571.9,-8.93 568.86,-8.55 566.01,-12.92C561.26,-20.33 562.4,-34.58 562.4,-42.18L562.4,-52.44C562.4,-67.45 562.97,-76.38 563.16,-78.09C563.35,-79.42 562.4,-80.37 561.07,-80.37C560.5,-80.37 559.74,-80.18 558.98,-80.18C558.22,-79.99 557.46,-79.8 556.32,-79.8L528.58,-79.8C526.87,-79.8 526.49,-79.42 526.49,-78.28L526.49,-74.48C526.49,-73.53 527.44,-73.72 530.67,-73.15C532.95,-72.77 536.94,-71.06 537.13,-66.5C537.32,-62.32 537.32,-54.72 537.32,-47.5L537.13,-39.14C537.13,-22.8 536.37,-16.72 544.35,-6.08C551,2.66 556.7,2.66 564.3,2.66C574.56,2.66 585.58,-3.23 589.38,-9.88L590.52,-9.88L591.66,0.38C591.85,1.71 592.99,2.66 594.89,2.66C596.6,2.66 597.93,2.28 599.07,1.9L625.67,-4.75Z" style="fill:white;fill-rule:nonzero;"/>
                <path d="M676.4,-82.46C666.14,-82.46 656.83,-79.04 648.28,-71.25C638.21,-61.94 634.03,-48.07 634.03,-35.15C634.03,-25.46 636.31,-18.05 643.72,-8.93C649.8,-1.33 659.3,2.66 673.55,2.66C691.03,2.66 705.85,-6.46 709.46,-12.73C710.03,-13.68 710.22,-14.44 709.65,-15.2L706.99,-17.86C706.42,-18.62 705.85,-18.24 704.9,-17.67C698.82,-13.3 694.64,-11.59 685.9,-11.59C677.35,-11.59 670.32,-14.06 665.57,-22.61C659.11,-34.39 659.49,-42.94 659.49,-54.91C659.49,-66.88 666.9,-74.29 672.03,-74.29C677.35,-74.29 680.96,-72.01 683.24,-65.17C684.76,-60.42 688.94,-55.1 696.92,-55.1C703,-55.1 706.8,-58.71 706.8,-64.03C706.8,-69.92 701.29,-82.46 676.4,-82.46Z" style="fill:white;fill-rule:nonzero;"/>
                <path d="M759.24,-82.46C748.98,-82.46 739.67,-79.04 731.12,-71.25C721.05,-61.94 716.87,-48.07 716.87,-35.15C716.87,-25.46 719.15,-18.05 726.56,-8.93C732.64,-1.33 742.14,2.66 756.39,2.66C773.87,2.66 788.69,-6.46 792.3,-12.73C792.87,-13.68 793.06,-14.44 792.49,-15.2L789.83,-17.86C789.26,-18.62 788.69,-18.24 787.74,-17.67C781.66,-13.3 777.48,-11.59 768.74,-11.59C760.19,-11.59 753.16,-14.06 748.41,-22.61C741.95,-34.39 742.33,-42.94 742.33,-54.91C742.33,-66.88 749.74,-74.29 754.87,-74.29C760.19,-74.29 763.8,-72.01 766.08,-65.17C767.6,-60.42 771.78,-55.1 779.76,-55.1C785.84,-55.1 789.64,-58.71 789.64,-64.03C789.64,-69.92 784.13,-82.46 759.24,-82.46Z" style="fill:white;fill-rule:nonzero;"/>
                <path d="M867.92,-47.31C872.1,-47.31 873.81,-47.5 873.81,-49.97C873.81,-53.01 872.1,-82.46 841.32,-82.46C826.69,-82.46 815.1,-76.95 808.26,-66.88C799.71,-54.34 799.71,-44.27 799.71,-38.95C799.9,-24.13 803.13,-16.72 812.82,-6.27C819.09,0.57 829.16,2.66 841.32,2.66C859.18,2.66 871.53,-10.45 874.95,-17.48C876.66,-20.71 876.09,-21.66 875.33,-22.04L872.1,-23.75C871.34,-24.32 870.58,-24.13 870.2,-23.18C866.4,-17.1 858.8,-12.73 849.49,-12.73C835.62,-12.73 824.41,-22.42 824.41,-42.18L824.41,-47.31L867.92,-47.31ZM824.6,-54.53C825.93,-67.83 830.68,-74.86 839.61,-74.86C845.5,-74.86 848.92,-66.69 848.92,-58.33C848.92,-55.48 847.02,-54.53 842.84,-54.53L824.6,-54.53Z" style="fill:white;fill-rule:nonzero;"/>
                <path d="M942.02,-74.86C941.83,-76.19 941.45,-77.14 938.6,-78.47C935.18,-80.18 928.91,-82.46 918.65,-82.46C910.67,-82.46 905.35,-81.13 897.75,-75.62C890.53,-70.3 887.87,-62.89 887.87,-53.96C887.87,-40.28 897.56,-33.82 911.05,-29.83C923.4,-26.03 928.91,-23.56 928.91,-15.96C928.91,-9.31 924.73,-4.37 917.7,-4.37C908.96,-4.37 904.59,-9.12 901.17,-14.06L893.57,-25.27C893.19,-26.03 892.81,-26.22 892.24,-26.03L888.82,-25.08C888.06,-24.89 887.49,-24.51 887.49,-23.56L889.96,-5.32C890.15,-4.18 890.34,-3.42 891.1,-2.85C893.38,-1.14 902.69,2.66 913.33,2.66C934.04,2.66 947.34,-9.5 947.34,-26.41C947.34,-33.06 946.2,-37.62 941.26,-42.56C935.56,-48.64 931,-49.97 921.69,-52.44C907.63,-56.24 905.35,-58.14 904.97,-64.79C904.97,-71.25 910.48,-75.05 916.18,-75.05C921.88,-75.05 925.49,-72.01 927.96,-69.54L938.6,-58.14C939.36,-57.38 939.93,-57.19 940.5,-57.57L943.92,-59.09C944.68,-59.47 944.87,-59.85 944.68,-60.8L942.02,-74.86Z" style="fill:white;fill-rule:nonzero;"/>
                <path d="M1015.74,-74.86C1015.55,-76.19 1015.17,-77.14 1012.32,-78.47C1008.9,-80.18 1002.63,-82.46 992.37,-82.46C984.39,-82.46 979.07,-81.13 971.47,-75.62C964.25,-70.3 961.59,-62.89 961.59,-53.96C961.59,-40.28 971.28,-33.82 984.77,-29.83C997.12,-26.03 1002.63,-23.56 1002.63,-15.96C1002.63,-9.31 998.45,-4.37 991.42,-4.37C982.68,-4.37 978.31,-9.12 974.89,-14.06L967.29,-25.27C966.91,-26.03 966.53,-26.22 965.96,-26.03L962.54,-25.08C961.78,-24.89 961.21,-24.51 961.21,-23.56L963.68,-5.32C963.87,-4.18 964.06,-3.42 964.82,-2.85C967.1,-1.14 976.41,2.66 987.05,2.66C1007.76,2.66 1021.06,-9.5 1021.06,-26.41C1021.06,-33.06 1019.92,-37.62 1014.98,-42.56C1009.28,-48.64 1004.72,-49.97 995.41,-52.44C981.35,-56.24 979.07,-58.14 978.69,-64.79C978.69,-71.25 984.2,-75.05 989.9,-75.05C995.6,-75.05 999.21,-72.01 1001.68,-69.54L1012.32,-58.14C1013.08,-57.38 1013.65,-57.19 1014.22,-57.57L1017.64,-59.09C1018.4,-59.47 1018.59,-59.85 1018.4,-60.8L1015.74,-74.86Z" style="fill:white;fill-rule:nonzero;"/>
                <path d="M1105.42,-111.15C1105.42,-116.66 1100.67,-123.12 1091.36,-123.12C1083,-123.12 1076.54,-116.85 1076.54,-110.58C1076.54,-102.98 1082.43,-96.71 1090.41,-96.9C1101.05,-97.28 1105.42,-104.88 1105.42,-111.15ZM1118.15,-1.33L1118.15,-4.94C1118.15,-6.08 1117.77,-6.65 1116.25,-6.65L1109.41,-6.65C1107.32,-6.65 1106.37,-7.98 1105.99,-11.59C1105.8,-13.68 1105.8,-20.52 1105.8,-27.93L1105.8,-48.26C1105.8,-64.98 1105.8,-76.95 1106.18,-80.18C1106.37,-81.51 1105.8,-82.46 1104.28,-82.46C1102.95,-82.46 1101.24,-82.08 1099.15,-81.32L1070.84,-72.2C1069.13,-71.63 1068.75,-71.25 1068.75,-70.68L1068.75,-68.59C1068.75,-67.45 1068.94,-66.69 1071.03,-65.93C1079.01,-63.08 1080.15,-59.28 1080.15,-53.96L1080.53,-27.36C1080.53,-22.04 1080.53,-16.15 1080.15,-10.45C1079.96,-7.41 1078.63,-6.65 1076.54,-6.65L1069.51,-6.65C1068.18,-6.65 1067.61,-6.27 1067.61,-5.13L1067.61,-1.33C1067.61,0.19 1068.18,0.57 1069.13,0.57C1071.22,0.57 1078.63,0 1089.65,0C1106.18,0 1114.92,0.57 1116.44,0.57C1117.77,0.57 1118.15,0 1118.15,-1.33Z" style="fill:white;fill-rule:nonzero;"/>
                <path d="M1182.56,-74.86C1182.37,-76.19 1181.99,-77.14 1179.14,-78.47C1175.72,-80.18 1169.45,-82.46 1159.19,-82.46C1151.21,-82.46 1145.89,-81.13 1138.29,-75.62C1131.07,-70.3 1128.41,-62.89 1128.41,-53.96C1128.41,-40.28 1138.1,-33.82 1151.59,-29.83C1163.94,-26.03 1169.45,-23.56 1169.45,-15.96C1169.45,-9.31 1165.27,-4.37 1158.24,-4.37C1149.5,-4.37 1145.13,-9.12 1141.71,-14.06L1134.11,-25.27C1133.73,-26.03 1133.35,-26.22 1132.78,-26.03L1129.36,-25.08C1128.6,-24.89 1128.03,-24.51 1128.03,-23.56L1130.5,-5.32C1130.69,-4.18 1130.88,-3.42 1131.64,-2.85C1133.92,-1.14 1143.23,2.66 1153.87,2.66C1174.58,2.66 1187.88,-9.5 1187.88,-26.41C1187.88,-33.06 1186.74,-37.62 1181.8,-42.56C1176.1,-48.64 1171.54,-49.97 1162.23,-52.44C1148.17,-56.24 1145.89,-58.14 1145.51,-64.79C1145.51,-71.25 1151.02,-75.05 1156.72,-75.05C1162.42,-75.05 1166.03,-72.01 1168.5,-69.54L1179.14,-58.14C1179.9,-57.38 1180.47,-57.19 1181.04,-57.57L1184.46,-59.09C1185.22,-59.47 1185.41,-59.85 1185.22,-60.8L1182.56,-74.86Z" style="fill:white;fill-rule:nonzero;"/>
            </g>
            <g transform="matrix(1,0,0,1,386.052,170)">
                <path d="M82.27,2.85C112.29,2.85 128.44,-8.55 140.79,-23.94C150.67,-37.24 155.04,-51.68 155.04,-65.55C155.04,-91.77 143.45,-110.96 129.01,-122.36C113.05,-134.9 98.42,-137.37 82.65,-137.37C65.55,-137.37 44.08,-133.57 27.36,-113.24C12.73,-95.57 9.69,-77.52 9.69,-65.93C9.69,-38.19 24.13,-17.67 37.62,-9.5C52.63,-0.19 69.16,2.85 82.27,2.85ZM83.79,-6.08C68.02,-6.08 40.09,-23.37 40.09,-72.01C40.09,-87.59 45.79,-107.54 57,-118.18C68.59,-129.39 78.09,-128.44 81.89,-128.44C97.85,-128.44 125.21,-105.64 125.21,-64.03C125.21,-48.45 118.94,-6.08 83.79,-6.08Z" style="fill:white;fill-rule:nonzero;"/>
                <path d="M269.8,-4.75C270.56,-4.94 270.94,-5.32 270.75,-6.27L270.18,-9.88C269.99,-10.64 269.42,-11.02 267.9,-10.64C265.62,-10.07 262.77,-10.07 261.63,-10.07C260.87,-10.07 258.78,-10.83 258.21,-16.72C257.83,-20.14 257.83,-29.45 257.83,-38.57L257.83,-52.63C257.83,-71.82 258.78,-76.76 258.97,-78.47C259.16,-79.42 258.4,-80.37 257.26,-80.37C256.69,-80.37 255.93,-80.18 254.98,-80.18C254.03,-79.99 253.08,-79.8 251.75,-79.8L223.44,-79.8C221.54,-79.8 221.16,-79.61 221.16,-78.09L221.16,-74.48C221.16,-73.53 222.11,-73.34 224.39,-73.15C229.14,-72.77 232.56,-71.25 232.56,-66.5L232.75,-21.85C232.75,-19.95 231.42,-16.91 229.71,-15.01C226.86,-11.4 222.68,-8.93 219.45,-8.93C216.03,-8.93 212.99,-8.55 210.14,-12.92C205.39,-20.33 206.53,-34.58 206.53,-42.18L206.53,-52.44C206.53,-67.45 207.1,-76.38 207.29,-78.09C207.48,-79.42 206.53,-80.37 205.2,-80.37C204.63,-80.37 203.87,-80.18 203.11,-80.18C202.35,-79.99 201.59,-79.8 200.45,-79.8L172.71,-79.8C171,-79.8 170.62,-79.42 170.62,-78.28L170.62,-74.48C170.62,-73.53 171.57,-73.72 174.8,-73.15C177.08,-72.77 181.07,-71.06 181.26,-66.5C181.45,-62.32 181.45,-54.72 181.45,-47.5L181.26,-39.14C181.26,-22.8 180.5,-16.72 188.48,-6.08C195.13,2.66 200.83,2.66 208.43,2.66C218.69,2.66 229.71,-3.23 233.51,-9.88L234.65,-9.88L235.79,0.38C235.98,1.71 237.12,2.66 239.02,2.66C240.73,2.66 242.06,2.28 243.2,1.9L269.8,-4.75Z" style="fill:white;fill-rule:nonzero;"/>
                <path d="M312.55,-50.16C312.55,-52.63 313.31,-56.24 315.78,-61.37C316.92,-63.84 318.82,-64.79 320.72,-64.79C322.24,-64.79 323.95,-64.41 325.47,-63.46C327.18,-62.32 329.65,-61.75 332.31,-61.75C338.58,-61.75 344.47,-67.45 344.47,-72.58C344.47,-79.23 340.1,-83.6 334.4,-83.6C326.04,-83.6 317.68,-77.9 311.79,-65.36L310.46,-65.36L308.75,-80.18C308.56,-81.32 307.8,-82.46 306.47,-82.46C305.33,-82.46 304.57,-82.08 303.43,-81.7L276.83,-70.11C275.69,-69.73 275.31,-69.35 275.31,-68.59L275.31,-66.88C275.31,-66.12 275.69,-65.74 276.83,-65.17L280.06,-63.27C285.76,-60.04 287.66,-56.62 287.66,-48.45L287.66,-32.68C287.66,-23.18 287.66,-16.53 287.28,-11.21C286.9,-7.79 285.19,-6.65 282.34,-6.65L276.83,-6.65C275.12,-6.65 274.74,-6.27 274.74,-4.94L274.74,-1.33C274.74,0.19 275.12,0.57 275.88,0.57C277.02,0.57 285,0 299.63,0C316.73,0 325.47,0.57 326.61,0.57C327.37,0.57 327.56,0 327.56,-1.14L327.56,-4.94C327.56,-6.08 327.37,-6.65 326.23,-6.65L318.44,-6.65C314.45,-6.65 312.55,-8.55 312.55,-14.44L312.55,-50.16Z" style="fill:white;fill-rule:nonzero;"/>
                <path d="M431.49,-75.81C431.49,-89.11 432.06,-117.8 432.06,-120.27C432.06,-125.4 432.82,-127.3 438.71,-127.3L447.64,-127.3C449.16,-127.3 449.54,-127.87 449.54,-128.82L449.54,-133.19C449.54,-134.52 449.35,-135.09 447.83,-135.09C446.12,-135.09 438.14,-134.52 415.91,-134.52C398.62,-134.52 391.78,-135.09 389.69,-135.09C388.55,-135.09 388.36,-134.71 388.36,-133.76L388.36,-129.2C388.36,-128.25 388.55,-127.3 389.69,-127.3L396.72,-127.3C401.09,-127.3 402.04,-125.4 402.42,-120.46C402.61,-117.42 402.99,-97.28 402.99,-85.12L402.99,-74.48C402.99,-62.89 402.42,-15.58 402.42,-11.97C402.42,-9.88 401.28,-7.22 394.25,-7.22L388.36,-7.22C387.22,-7.22 387.03,-6.84 387.03,-5.89L387.03,-1.14C387.03,0.19 387.22,0.57 388.55,0.57C391.02,0.57 397.86,0 416.67,0C434.15,0 488.87,0.19 493.81,0.57C494.95,-4.56 502.55,-35.91 503.12,-37.24C503.31,-38.38 503.31,-38.57 502.74,-38.95L498.94,-40.47C497.8,-41.04 497.23,-40.47 496.66,-39.33C493.81,-32.3 480.89,-9.5 470.63,-8.55C460.37,-7.6 451.82,-7.6 442.89,-7.6L432.06,-7.6C431.49,-15.2 431.49,-56.24 431.49,-59.47L431.49,-75.81Z" style="fill:white;fill-rule:nonzero;"/>
                <path d="M582.73,-47.31C586.91,-47.31 588.62,-47.5 588.62,-49.97C588.62,-53.01 586.91,-82.46 556.13,-82.46C541.5,-82.46 529.91,-76.95 523.07,-66.88C514.52,-54.34 514.52,-44.27 514.52,-38.95C514.71,-24.13 517.94,-16.72 527.63,-6.27C533.9,0.57 543.97,2.66 556.13,2.66C573.99,2.66 586.34,-10.45 589.76,-17.48C591.47,-20.71 590.9,-21.66 590.14,-22.04L586.91,-23.75C586.15,-24.32 585.39,-24.13 585.01,-23.18C581.21,-17.1 573.61,-12.73 564.3,-12.73C550.43,-12.73 539.22,-22.42 539.22,-42.18L539.22,-47.31L582.73,-47.31ZM539.41,-54.53C540.74,-67.83 545.49,-74.86 554.42,-74.86C560.31,-74.86 563.73,-66.69 563.73,-58.33C563.73,-55.48 561.83,-54.53 557.65,-54.53L539.41,-54.53Z" style="fill:white;fill-rule:nonzero;"/>
                <path d="M635.55,51.68C654.74,51.68 669.18,45.6 676.21,39.9C683.62,33.63 687.23,26.79 687.23,18.81C687.23,11.78 684.76,5.13 677.92,-0.38C668.61,-7.6 658.92,-8.36 646,-7.98C625.48,-7.41 619.97,-7.98 619.97,-14.63C619.97,-18.43 624.53,-21.85 627,-23.37C631.75,-22.8 634.41,-22.8 638.21,-22.8C645.81,-22.8 656.64,-25.08 663.86,-31.92C670.32,-38.19 672.41,-45.22 672.41,-52.44C672.41,-59.28 670.89,-63.46 670.13,-64.79C671.08,-65.74 672.79,-66.5 673.74,-66.5C675.83,-66.5 678.11,-65.17 679.06,-63.65C680.2,-61.75 681.72,-60.42 684.95,-60.42C689.32,-60.42 693.31,-64.22 693.31,-68.59C693.31,-74.67 689.7,-78.47 682.86,-78.47C677.54,-78.47 670.51,-75.43 666.14,-71.82C664.43,-73.72 656.07,-82.46 639.35,-82.46C612.37,-82.46 602.49,-67.07 602.49,-54.72C602.49,-38.57 611.04,-30.59 619.21,-25.84L619.21,-25.27C612.94,-22.23 602.3,-16.15 602.3,-5.13C602.3,1.52 606.67,7.41 615.41,10.07L615.41,11.02C606.48,14.63 595.84,21.47 595.84,30.97C595.84,36.86 598.12,41.8 605.15,45.79C612.56,50.16 626.43,51.68 635.55,51.68ZM638.4,-75.24C643.72,-75.24 646,-73.15 647.71,-69.92C648.66,-68.21 649.42,-64.22 649.42,-57.19C649.42,-42.56 646.57,-29.83 638.21,-29.83C634.41,-29.83 631.56,-30.97 629.47,-33.63C627,-36.48 625.29,-42.56 625.29,-48.07C625.29,-56.62 626.43,-65.36 629.09,-69.16C631.75,-72.96 634.22,-75.24 638.4,-75.24ZM642.01,44.27C633.46,44.27 628.14,43.13 622.82,39.33C619.21,36.67 616.17,31.92 616.17,26.41C616.17,20.71 620.16,14.82 625.67,13.49L642.2,12.73C659.49,11.97 666.9,17.67 666.9,28.12C666.9,37.62 654.55,44.27 642.01,44.27Z" style="fill:white;fill-rule:nonzero;"/>
                <path d="M740.05,-50.54C735.11,-47.12 730.36,-45.03 715.54,-38C703.19,-31.92 699.2,-23.18 699.2,-14.82C699.2,-4.56 705.09,2.66 711.74,2.66C717.25,2.66 721.62,2.28 725.42,0.95C733.02,-1.9 737.01,-4.56 741.76,-8.93L742.71,-8.93C746.32,0 753.35,2.66 760.76,2.66C772.54,2.66 778.24,-6.27 779.95,-10.26C780.71,-11.97 780.14,-12.54 779.38,-12.92L776.72,-14.44C776.15,-14.82 775.58,-14.63 774.82,-13.49C774.06,-12.16 771.97,-10.07 769.31,-10.07C765.7,-10.07 765.13,-13.11 764.94,-22.99L764.56,-60.8C764.56,-67.64 763.42,-73.15 759.24,-76.95C755.25,-80.56 752.02,-82.46 739.86,-82.46C724.47,-82.46 711.36,-75.62 703.38,-68.4C699.39,-64.98 698.06,-59.28 698.06,-55.1C698.06,-50.92 701.86,-48.26 706.23,-48.26C713.83,-48.26 718.58,-52.63 718.58,-59.09C718.58,-65.17 716.3,-68.4 719.15,-70.3C722.57,-72.58 725.8,-73.34 729.22,-73.34C732.26,-73.34 735.3,-72.77 737.2,-71.06C739.67,-68.78 740.05,-64.41 740.05,-60.61L740.05,-50.54ZM740.24,-15.96C740.24,-14.25 736.44,-9.5 731.31,-9.12C727.13,-9.31 723.14,-12.92 723.14,-21.66C723.14,-34.77 730.93,-37.62 740.24,-42.94L740.24,-15.96Z" style="fill:white;fill-rule:nonzero;"/>
                <path d="M825.55,-82.46C815.29,-82.46 805.98,-79.04 797.43,-71.25C787.36,-61.94 783.18,-48.07 783.18,-35.15C783.18,-25.46 785.46,-18.05 792.87,-8.93C798.95,-1.33 808.45,2.66 822.7,2.66C840.18,2.66 855,-6.46 858.61,-12.73C859.18,-13.68 859.37,-14.44 858.8,-15.2L856.14,-17.86C855.57,-18.62 855,-18.24 854.05,-17.67C847.97,-13.3 843.79,-11.59 835.05,-11.59C826.5,-11.59 819.47,-14.06 814.72,-22.61C808.26,-34.39 808.64,-42.94 808.64,-54.91C808.64,-66.88 816.05,-74.29 821.18,-74.29C826.5,-74.29 830.11,-72.01 832.39,-65.17C833.91,-60.42 838.09,-55.1 846.07,-55.1C852.15,-55.1 855.95,-58.71 855.95,-64.03C855.95,-69.92 850.44,-82.46 825.55,-82.46Z" style="fill:white;fill-rule:nonzero;"/>
                <path d="M873.43,51.68C884.07,51.68 888.25,44.27 891.29,39.14C894.9,33.06 903.07,15.39 912.76,-5.32C927.2,-36.48 940.5,-64.79 943.92,-69.35C946.2,-72.39 948.86,-73.15 950.95,-73.15L953.04,-73.15C953.99,-73.15 953.99,-73.72 953.99,-74.86L953.99,-78.47C953.99,-79.61 953.99,-80.37 952.85,-80.37C950.76,-80.37 946.39,-79.8 938.41,-79.8C927.77,-79.8 923.78,-80.37 921.31,-80.37C920.36,-80.37 920.17,-79.8 920.17,-78.85L920.17,-74.67C920.17,-73.72 920.36,-73.15 921.5,-73.15L924.54,-73.15C928.34,-73.15 930.81,-70.68 929.29,-65.55C928.15,-61.94 917.89,-35.53 913.14,-24.7L912.19,-24.7C910.86,-28.88 900.22,-65.55 899.65,-68.78C899.27,-71.82 900.98,-73.15 903.07,-73.15L905.73,-73.15C906.68,-73.15 906.87,-73.72 906.87,-74.67L906.87,-78.66C906.87,-79.8 906.68,-80.37 905.16,-80.37C903.07,-80.37 897.18,-79.8 885.59,-79.8C869.06,-79.8 864.5,-80.37 862.79,-80.37C861.46,-80.37 861.27,-79.8 861.27,-79.04L861.27,-74.86C861.27,-73.72 861.46,-73.15 862.79,-73.15L865.83,-73.15C868.49,-73.15 870.58,-69.73 872.48,-64.98C873.81,-61.94 897.56,-2.66 899.08,3.99C896.8,10.64 886.92,31.35 885.02,32.68C883.5,33.63 881.22,33.44 878.94,31.92C876.28,30.4 873.62,29.83 870.96,29.83C866.21,29.83 861.65,34.39 861.65,40.66C861.65,47.69 866.78,51.68 873.43,51.68Z" style="fill:white;fill-rule:nonzero;"/>
            </g>
        </g>
    </g>
</svg>
